<?xml version="1.0" encoding="UTF-8"?>
<svg width="227px" height="346px" viewBox="0 0 227 346" version="1.1" xmlns="http://www.w3.org/2000/svg" xmlns:xlink="http://www.w3.org/1999/xlink">
    <!-- Generator: Sketch 64 (93537) - https://sketch.com -->
    <title>illustration/6</title>
    <desc>Created with Sketch.</desc>
    <g id="Web" stroke="none" stroke-width="1" fill="none" fill-rule="evenodd">
        <g id="Landing-page---therapists" transform="translate(-857.000000, -1805.000000)">
            <g id="illustration/6" transform="translate(857.000000, 1808.000000)">
                <g id="Group-4">
                    <rect id="Rectangle" stroke-opacity="0.4" stroke="#3C4042" stroke-width="4.35897436" fill="#FFFFFF" x="39" y="0" width="168" height="340" rx="17.4358974"></rect>
                    <path d="M83,2 L164,2 L164,8.28205128 C164,13.0968414 160.096841,17 155.282051,17 L91.7179487,17 C86.9031586,17 83,13.0968414 83,8.28205128 L83,2 L83,2 Z" id="Rectangle" fill="#3C4042" opacity="0.4"></path>
                    <rect id="Rectangle-Copy-8" fill="#3C4042" x="60" y="110" width="126" height="126" rx="14"></rect>
                    <rect id="Rectangle-Copy-9" fill="#3ED590" x="176" y="80" width="51" height="51" rx="6"></rect>
                    <rect id="Rectangle-Copy-10" fill="#6FCAD8" x="149" y="195" width="72" height="72" rx="7"></rect>
                    <circle id="Oval-Copy-3" fill="#FFFFFF" cx="185" cy="89" r="4"></circle>
                    <circle id="Oval-Copy-5" fill="#FFFFFF" cx="161" cy="207" r="6"></circle>
                    <circle id="Oval-Copy-6" fill="#FFFFFF" cx="83" cy="133" r="14"></circle>
                    <rect id="Rectangle-Copy-5" fill="#FF7271" x="0" y="89" width="80" height="80" rx="10"></rect>
                    <circle id="Oval-Copy" fill="#FFFFFF" cx="14" cy="103" r="8"></circle>
                </g>
            </g>
        </g>
    </g>
</svg>