<?xml version="1.0" encoding="UTF-8"?>
<svg width="363px" height="114px" viewBox="0 0 363 114" version="1.1" xmlns="http://www.w3.org/2000/svg" xmlns:xlink="http://www.w3.org/1999/xlink">
    <!-- Generator: Sketch 49.2 (51160) - http://www.bohemiancoding.com/sketch -->
    <title>Group 3</title>
    <desc>Created with Sketch.</desc>
    <defs>
        <linearGradient x1="50%" y1="50%" x2="0%" y2="50%" id="linearGradient-1">
            <stop stop-color="#D42049" offset="0%"></stop>
            <stop stop-color="#FF7043" offset="100%"></stop>
        </linearGradient>
    </defs>
    <g id="logo" stroke="none" stroke-width="1" fill="none" fill-rule="evenodd">
        <g id="Letter-Copy-8" transform="translate(-212.000000, -192.000000)">
            <g id="Group-3" transform="translate(212.000000, 192.000000)">
                <g id="Group-2" transform="translate(0.000000, 60.000000)" fill="#4A4A4A">
                    <path d="M238.14173,48.8504634 C236.457119,52.2723309 233.140589,53.983239 228.192042,53.983239 C224.296378,53.983239 221.256226,52.8777292 219.071495,50.6666763 C216.886764,48.4556235 215.794415,45.6918488 215.794415,42.3752696 C215.794415,38.5322491 217.202624,35.5447404 220.019084,33.4126537 C222.835544,31.280567 227.007528,30.2145397 232.53516,30.2145397 L237.58897,30.2145397 L237.58897,27.4507375 C237.58897,24.0815141 235.351628,22.3969276 230.876879,22.3969276 C226.560061,22.3969276 222.559168,23.6077241 218.87408,26.0293534 L218.87408,15.6848365 C222.032727,13.8949365 226.586375,13 232.53516,13 C238.220724,13 242.458512,14.2239573 245.24865,16.6719087 C248.038788,19.1198601 249.433837,22.9233404 249.433837,28.0824637 L249.433837,53.7463417 L238.14173,53.7463417 L238.14173,48.8504634 Z M232.453396,45.5283041 C234.085363,45.5283041 235.348803,45.0281925 236.243753,44.0279543 C237.138703,43.0277161 237.586171,41.6589896 237.586171,39.9217338 L237.586171,37 L233.87478,37 C231.926948,37 230.426613,37.4211466 229.37373,38.2634525 C228.320848,39.1057583 227.794415,40.1849465 227.794415,41.5010494 C227.794415,44.1858993 229.347393,45.5283041 232.453396,45.5283041 Z" id="Combined-Shape"></path>
                    <path d="M137.10636,48.8504634 C135.421749,52.2723309 132.105219,53.983239 127.156672,53.983239 C123.261008,53.983239 120.220856,52.8777292 118.036125,50.6666763 C115.851394,48.4556235 114.759045,45.6918488 114.759045,42.3752696 C114.759045,38.5322491 116.167254,35.5447404 118.983714,33.4126537 C121.800174,31.280567 125.972158,30.2145397 131.49979,30.2145397 L136.5536,30.2145397 L136.5536,27.4507375 C136.5536,24.0815141 134.316259,22.3969276 129.841509,22.3969276 C125.524691,22.3969276 121.523799,23.6077241 117.83871,26.0293534 L117.83871,15.6848365 C120.997357,13.8949365 125.551005,13 131.49979,13 C137.185355,13 141.423142,14.2239573 144.21328,16.6719087 C147.003419,19.1198601 148.398467,22.9233404 148.398467,28.0824637 L148.398467,53.7463417 L137.10636,53.7463417 L137.10636,48.8504634 Z M131.418026,45.5283041 C133.049994,45.5283041 134.313433,45.0281925 135.208383,44.0279543 C136.103333,43.0277161 136.550802,41.6589896 136.550802,39.9217338 L136.550802,37 L132.83941,37 C130.891578,37 129.391243,37.4211466 128.338361,38.2634525 C127.285478,39.1057583 126.759045,40.1849465 126.759045,41.5010494 C126.759045,44.1858993 128.312023,45.5283041 131.418026,45.5283041 Z" id="Combined-Shape-Copy"></path>
                    <polygon id="Path" points="265.232434 53 253.703431 53 253.703431 0 265.232434 0"></polygon>
                    <polygon id="Path" points="281.031032 53 269.502029 53 269.502029 0 281.031032 0 281.031032 31.3559945 293.665557 13 306.931808 13 293.033831 32.619447 306.931808 53 293.665557 53 281.031032 33.8039336"></polygon>
                    <polygon id="Path" points="11.5290036 53.0356497 0 53.0356497 0 13 11.5290036 13"></polygon>
                    <polygon id="Path-Copy" points="320.730406 53.0356497 309.201402 53.0356497 309.201402 13 320.730406 13"></polygon>
                    <path d="M362.719087,53 L351.190083,53 L351.190083,29.5828135 C351.190083,27.2138283 350.637328,25.4107944 349.531802,24.1736576 C348.426276,22.9365209 346.873297,22.3179619 344.872821,22.3179619 C342.767056,22.3179619 341.016666,23.1470942 339.621597,24.8053839 C338.226528,26.4636735 337.529004,28.9510707 337.529004,32.2676499 L337.529004,53 L326,53 L326,13 L337.529004,13 L337.529004,20.1858858 C338.529242,17.974833 340.069059,16.2244424 342.148502,14.9346616 C344.227944,13.6448807 346.715341,13 349.610768,13 C353.717009,13 356.928252,14.2239573 359.244593,16.6719087 C361.560934,19.1198601 362.719087,22.7127671 362.719087,27.4507375 L362.719087,53 Z" id="Path"></path>
                    <path d="M175.38435,53.0356497 L163.539483,53.0356497 L150.668061,13 L162.591894,13 L166.066388,26.187285 C166.908694,29.5038643 167.619379,32.491373 168.198464,35.1499008 C168.777549,37.8084287 169.119731,39.6377843 169.225019,40.6380224 L169.461916,42.1383722 C169.830425,38.9797253 171.120187,33.6627494 173.331239,26.187285 L177.200563,13 L187.150251,13 L190.940608,26.187285 C191.888202,29.5565084 192.677852,32.5703388 193.309581,35.2288666 C193.941311,37.8873945 194.336136,39.71675 194.494068,40.7169882 L194.730965,42.1383722 C195.099474,39.0323694 196.336592,33.7153935 198.442357,26.187285 L202.153749,13 L213.524821,13 L200.732365,53.0356497 L188.887498,53.0356497 L185.413004,39.9273304 C184.675986,37.0845482 184.031105,34.4260602 183.478342,31.9517868 C182.925579,29.4775134 182.570236,27.713962 182.412304,26.6610797 L182.175407,25.0817641 C181.648965,28.6089198 180.543456,33.5573925 178.858844,39.9273304 L175.38435,53.0356497 Z" id="Path"></path>
                    <path d="M110.489451,52.5977889 C108.541619,53.4400948 105.909452,53.8612414 102.592873,53.8612414 C93.485441,53.8612414 88.9317933,49.3075937 88.9317933,40.2001617 L88.9317933,0 L100.460797,0 L100.460797,14 L109.778759,14 L109.778759,21.8801011 L100.460797,21.8801011 L100.460797,40.2791275 C100.460797,41.7005186 100.868783,42.7797068 101.684767,43.5167244 C102.50075,44.253742 103.566778,44.6222453 104.882881,44.6222453 C106.988645,44.6222453 108.857483,44.095812 110.489451,43.0429297 L110.489451,52.5977889 Z" id="Path"></path>
                    <path d="M84.662199,41.4276802 C84.662199,45.3759889 83.2408292,48.4293018 80.398047,50.5877105 C77.5552647,52.7461193 73.7912669,53.8253074 69.1059406,53.8253074 C64.262682,53.8253074 60.2091459,53.0093359 56.9452108,51.3773683 L56.9452108,41.1118171 C60.5776547,43.6387347 64.4206175,44.9021745 68.4742144,44.9021745 C71.3696408,44.9021745 72.8173322,43.9809163 72.8173322,42.1383722 C72.8173322,41.6645752 72.6857239,41.2171069 72.4225033,40.795954 C72.1592828,40.3748011 71.7118145,39.9799761 71.0800851,39.6114673 C70.4483557,39.2429585 69.8692791,38.9402594 69.342838,38.7033609 C68.8163968,38.4664624 68.0530686,38.1374416 67.0528304,37.7162886 C66.0525922,37.2951357 65.289264,36.9529541 64.7628228,36.6897335 C59.4457672,34.162816 56.7872792,30.3724965 56.7872792,25.3186614 C56.7872792,21.4229969 58.2744532,18.3960057 61.2488457,16.2375969 C64.2232382,14.0791882 67.9214319,13 72.3435376,13 C76.4497786,13 79.8715947,13.5527549 82.6090888,14.6582813 L82.6090888,24.5290036 C79.8189506,22.8970361 76.5550644,22.0810645 72.8173322,22.0810645 C71.4485852,22.0810645 70.3957187,22.357442 69.6587011,22.9102052 C68.9216835,23.4629684 68.5531802,24.1604925 68.5531802,25.0027983 C68.5531802,25.4765954 68.6847885,25.9240636 68.9480091,26.3452166 C69.2112297,26.7663695 69.6455371,27.1611944 70.2509444,27.5297032 C70.8563518,27.898212 71.4354283,28.2272328 71.9881916,28.5167755 C72.5409548,28.8063181 73.304283,29.1616605 74.2781991,29.5828135 C75.2521153,30.0039664 76.0286043,30.3724697 76.6076896,30.6883344 C79.0293189,31.9517931 80.977122,33.4126454 82.4511572,35.0709351 C83.9251924,36.7292247 84.662199,38.8481186 84.662199,41.4276802 Z" id="Path"></path>
                    <path d="M52.5176849,53 L40.9886813,53 L40.9886813,29.1088867 C40.9886813,26.7399015 40.4359263,25.4107944 39.3303999,24.1736576 C38.2248735,22.9365209 36.6718954,22.3179619 34.671419,22.3179619 C32.5656544,22.3179619 30.8152638,23.1470942 29.4201947,24.8053839 C28.0251257,26.4636735 27.3276016,28.9510707 27.3276016,32.2676499 L27.3276016,53 L15.7985979,53 L15.7985979,13 L27.3276016,13 L27.3276016,20.1858858 C28.3278398,17.974833 29.8676571,16.2244424 31.9470996,14.9346616 C34.0265422,13.6448807 36.5139393,13 39.4093657,13 C43.5156067,13 46.7268496,14.2239573 49.0431907,16.6719087 C51.3595317,19.1198601 52.5176849,22.7127671 52.5176849,27.4507375 L52.5176849,53 Z" id="Path"></path>
                </g>
                <g id="Group" transform="translate(285.000000, 0.000000)">
                    <path d="M73.6454602,0.237788388 L21,0.237788388 L21,8.66750966 L69.4305995,8.66750966 L69.4305995,53.7401756 L20.7377196,53.7401756 L20.7377196,44.1236198 C19.9158217,44.200541 20.210862,44.1812229 12.3079983,44.1812229 L12.3079983,57.9550362 C12.3079983,60.2819905 14.1944997,62.1698969 16.5228589,62.1698969 L73.6454602,62.1698969 C75.9738194,62.1698969 77.8603208,60.2819905 77.8603208,57.9550362 L77.8603208,4.45264902 C77.8603208,2.12569471 75.9738194,0.237788388 73.6454602,0.237788388 Z" id="Fill-1" fill="#4A4A4A"></path>
                    <path d="M35.4968538,18.2148606 C35.4968538,15.8865014 33.6103524,14 31.2819932,14 L4.21486064,14 C1.88650137,14 0,15.8865014 0,18.2148606 C0,20.5418149 1.88650137,22.4297213 4.21486064,22.4297213 L31.2819932,22.4297213 C33.6103524,22.4297213 35.4968538,20.5418149 35.4968538,18.2148606 Z" id="Fill-4" fill="url(#linearGradient-1)"></path>
                    <path d="M26.1298718,32.2148606 C26.1298718,29.8879063 24.2433704,28 21.9150112,28 L12.2148606,28 C9.95112924,28 8,29.8288983 8,32.2148606 C8,34.5432199 9.88650137,36.4297213 12.2148606,36.4297213 L21.9150112,36.4297213 C24.2777918,36.4297213 26.1298718,34.5031787 26.1298718,32.2148606 Z" id="Fill-6" fill="url(#linearGradient-1)"></path>
                </g>
            </g>
        </g>
    </g>
</svg>