<?xml version="1.0" encoding="UTF-8"?>
<svg width="182px" height="158px" viewBox="0 0 182 158" version="1.1" xmlns="http://www.w3.org/2000/svg" xmlns:xlink="http://www.w3.org/1999/xlink">
    <!-- Generator: Sketch 64 (93537) - https://sketch.com -->
    <title>shape/7</title>
    <desc>Created with Sketch.</desc>
    <g id="shape/7" stroke="none" stroke-width="1" fill="none" fill-rule="evenodd">
        <g id="Group-2">
            <circle id="Oval-Copy-9" fill="#FF7271" cx="79" cy="79" r="79"></circle>
            <path d="M140.842857,158 C144.528571,154.442822 147.142857,150.885645 148.685714,147.328467 C150.228571,143.77129 151,139.800487 151,135.416058 L151,135.416058 L151,124 L133,124 L133,141.372263 L141.228571,141.372263 C140.628571,144.92944 138.314286,148.776156 134.285714,152.912409 L134.285714,152.912409 L140.842857,158 Z M171.842857,158 C175.528571,154.442822 178.142857,150.885645 179.685714,147.328467 C181.228571,143.77129 182,139.800487 182,135.416058 L182,135.416058 L182,124 L164,124 L164,141.372263 L172.228571,141.372263 C171.628571,144.92944 169.314286,148.776156 165.285714,152.912409 L165.285714,152.912409 L171.842857,158 Z" id=",,-copy" fill="#6FCAD8"></path>
        </g>
    </g>
</svg>