<?xml version="1.0" encoding="UTF-8"?>
<svg width="526px" height="430px" viewBox="0 0 526 430" version="1.1" xmlns="http://www.w3.org/2000/svg" xmlns:xlink="http://www.w3.org/1999/xlink">
    <!-- Generator: Sketch 64 (93537) - https://sketch.com -->
    <title>Group 2</title>
    <desc>Created with Sketch.</desc>
    <g id="Symbols" stroke="none" stroke-width="1" fill="none" fill-rule="evenodd">
        <g id="shape/4">
            <g id="Group-2">
                <path d="M312,2 C430.188936,2 526,97.8110635 526,216 C526,334.188936 430.188936,430 312,430 C193.811064,430 98,334.188936 98,216 C98,97.8110635 193.811064,2 312,2 Z M311.5,34 C211.260318,34 130,115.260318 130,215.5 C130,315.739682 211.260318,397 311.5,397 C411.739682,397 493,315.739682 493,215.5 C493,115.260318 411.739682,34 311.5,34 Z" id="Combined-Shape-Copy-5" fill="#FF7271"></path>
                <path d="M27.45,123 C40.35,110.131387 49.5,97.2627737 54.9,84.3941606 C60.3,71.5255474 63,57.1605839 63,41.2992701 L63,41.2992701 L63,0 L0,0 L0,62.8467153 L28.8,62.8467153 C26.7,75.7153285 18.6,89.6313869 4.5,104.594891 L4.5,104.594891 L27.45,123 Z M140.45,123 C153.35,110.131387 162.5,97.2627737 167.9,84.3941606 C173.3,71.5255474 176,57.1605839 176,41.2992701 L176,41.2992701 L176,0 L113,0 L113,62.8467153 L141.8,62.8467153 C139.7,75.7153285 131.6,89.6313869 117.5,104.594891 L117.5,104.594891 L140.45,123 Z" id=",," fill="#6FCAD8" transform="translate(88.000000, 61.500000) scale(-1, -1) translate(-88.000000, -61.500000) "></path>
            </g>
        </g>
    </g>
</svg>