<?xml version="1.0" encoding="UTF-8"?>
<svg width="49px" height="34px" viewBox="0 0 49 34" version="1.1" xmlns="http://www.w3.org/2000/svg" xmlns:xlink="http://www.w3.org/1999/xlink">
    <!-- Generator: Sketch 64 (93537) - https://sketch.com -->
    <title>,, copy</title>
    <desc>Created with Sketch.</desc>
    <g id="Symbols" stroke="none" stroke-width="1" fill="none" fill-rule="evenodd">
        <g id="shape/3" fill="#3ED590">
            <path d="M7.84285714,34 C11.5285714,30.4428224 14.1428571,26.8856448 15.6857143,23.3284672 C17.2285714,19.7712895 18,15.8004866 18,11.4160584 L18,11.4160584 L18,0 L0,0 L0,17.3722628 L8.22857143,17.3722628 C7.62857143,20.9294404 5.31428571,24.7761557 1.28571429,28.9124088 L1.28571429,28.9124088 L7.84285714,34 Z M38.8428571,34 C42.5285714,30.4428224 45.1428571,26.8856448 46.6857143,23.3284672 C48.2285714,19.7712895 49,15.8004866 49,11.4160584 L49,11.4160584 L49,0 L31,0 L31,17.3722628 L39.2285714,17.3722628 C38.6285714,20.9294404 36.3142857,24.7761557 32.2857143,28.9124088 L32.2857143,28.9124088 L38.8428571,34 Z" id=",,-copy"></path>
        </g>
    </g>
</svg>