<?xml version="1.0" encoding="UTF-8"?>
<svg width="26px" height="20px" viewBox="0 0 26 20" version="1.1" xmlns="http://www.w3.org/2000/svg" xmlns:xlink="http://www.w3.org/1999/xlink">
    <!-- Generator: Sketch 64 (93537) - https://sketch.com -->
    <title>Fill 1</title>
    <desc>Created with Sketch.</desc>
    <g id="Symbols" stroke="none" stroke-width="1" fill="none" fill-rule="evenodd">
        <g id="icon/massage-type/relax" transform="translate(-1.000000, -4.000000)" fill="#6FCAD8">
            <path d="M19.2863789,14.2562967 C19.7372148,14.2562967 20.1027226,14.626915 20.1027226,15.0840985 C20.1027226,15.5412819 19.7372148,15.9119003 19.2863789,15.9119003 L16.7502617,15.9119003 C16.4243477,15.9119003 16.1296133,15.7152877 16.0006797,15.4118204 C15.8716445,15.1082502 15.9330391,14.756016 16.1567812,14.5157347 L17.3926953,13.188574 L16.7502617,13.188574 C16.2994258,13.188574 15.9339023,12.8179557 15.9339023,12.3607722 C15.9339023,11.9035888 16.2994258,11.5329705 16.7502617,11.5329705 L19.2863789,11.5329705 C19.6123437,11.5329705 19.9070273,11.729583 20.0360117,12.0330503 C20.1650469,12.3366205 20.1036523,12.6888547 19.8799102,12.929136 L18.6439961,14.2562967 L19.2863789,14.2562967 Z M12.5205898,15.4904552 C12.9714258,15.4904552 13.3368984,15.861125 13.3368984,16.3183085 C13.3368984,16.7754404 12.9714258,17.1461102 12.5205898,17.1461102 L8.71367187,17.1461102 C8.38775781,17.1461102 8.09307422,16.9494462 7.96403906,16.6459789 C7.83500391,16.3424087 7.89639844,15.9901745 8.12019141,15.7498931 L10.6268047,13.0582371 L8.71367187,13.0582371 C8.26283594,13.0582371 7.89733035,12.6876188 7.89733035,12.2304353 C7.89733035,11.7732518 8.26283594,11.402582 8.71367187,11.402582 L12.5205898,11.402582 C12.8465039,11.402582 13.1411875,11.5992461 13.2701719,11.9027133 C13.399207,12.2062321 13.3378125,12.5585177 13.1140195,12.7987991 L10.6074063,15.4904552 L12.5205898,15.4904552 Z M27,14.0000515 C27,12.3990854 27,9.74836886 26.2873359,7.65319354 C26.9800937,6.25393817 26.5998437,4.65637086 26.5825781,4.58602701 C26.4973164,4.24100232 26.1931367,4 25.8427461,4 C25.7746484,4 24.2219609,4.01308004 22.8922539,5.10799273 C21.4724609,4.68922545 19.6915625,4.43004496 18.4197461,4.28436214 C16.8648242,4.1062882 15.2126055,4 14,4 C12.7874453,4 11.1351758,4.1062882 9.58030469,4.28436214 C8.30848828,4.42999346 6.52758984,4.68922545 5.10774609,5.10799273 C3.77803906,4.01308004 2.22540234,4 2.15725391,4 C1.80706641,4 1.50283594,4.24100232 1.41732031,4.58679946 C1.37435938,4.7620411 1.03189062,6.28365149 1.71271484,7.65345102 C1,9.74852335 1,12.3991884 1,14.0000515 C1,15.6009146 1,18.2515282 1.71271484,20.3467035 C1.03280469,21.7150611 1.37441016,23.2377014 1.41757422,23.4141275 C1.50288672,23.7591522 1.80706641,24 2.15725391,24 C2.22545313,24 3.77803906,23.9869715 5.10779687,22.8920588 C6.52758984,23.3107746 8.30853906,23.5700065 9.58035547,23.7156894 C11.1352266,23.8937633 12.7874453,24 14.0000508,24 C15.2126562,24 16.864875,23.8937633 18.4197969,23.7156894 C19.6915625,23.570058 21.4725625,23.3107746 22.8923047,22.8920588 C24.2220117,23.98692 25.7746484,24 25.8427969,24 C26.1931367,24 26.4973164,23.7590492 26.5827812,23.4133035 C26.6256914,23.2380619 26.9682109,21.7164515 26.2874375,20.3467035 C27,18.2515282 27,15.6009146 27,14.0000515 L27,14.0000515 Z" id="Fill-1"></path>
        </g>
    </g>
</svg>