<?xml version="1.0" encoding="UTF-8"?>
<svg width="28px" height="28px" viewBox="0 0 28 28" version="1.1" xmlns="http://www.w3.org/2000/svg" xmlns:xlink="http://www.w3.org/1999/xlink">
    <!-- Generator: Sketch 64 (93537) - https://sketch.com -->
    <title>Combined Shape</title>
    <desc>Created with Sketch.</desc>
    <g id="Symbols" stroke="none" stroke-width="1" fill="none" fill-rule="evenodd">
        <g id="icon/massage-type/athletic" fill="#6FCAD8">
            <path d="M0.373439062,21.2265703 C0.5294625,20.9870391 0.8654625,20.9499063 1.06753281,21.1519766 L1.06753281,21.1519766 L6.84756406,26.9320625 C7.04979844,27.1342969 7.01217344,27.4701875 6.77264219,27.626375 C5.81479062,28.2510156 4.66897812,28.0485078 3.96498594,27.3445156 L3.96498594,27.3445156 L0.655025,24.0345 C-0.0550921875,23.3243281 -0.246225,22.1776953 0.373439062,21.2265703 Z M5.87784531,13.8559531 L14.1434781,22.1216406 C15.0219781,23.0012344 15.0165641,24.4163281 14.1434781,25.2894141 L12.1679469,27.2649453 C11.3021891,28.1328906 9.87911094,28.1438828 9.00022812,27.2649453 L0.734540625,18.9992578 C-0.138435938,18.1256797 -0.138435938,16.7045156 0.734540625,15.8315391 L2.71007187,13.8559531 C3.58315781,12.9828672 4.99825156,12.9775078 5.87784531,13.8559531 Z M14.2348062,9.447375 C14.5847516,9.09792188 15.1519703,9.09792188 15.5019703,9.447375 L15.5019703,9.447375 L18.5521109,12.4975156 C18.9021109,12.8474609 18.9021109,13.4147344 18.5521109,13.7646797 L18.5521109,13.7646797 L13.7643844,18.5524063 C13.4132359,18.9024609 12.8460172,18.9012031 12.4971656,18.5524063 L12.4971656,18.5524063 L9.447025,15.5022656 C9.09707969,15.1522656 9.09707969,14.5850469 9.447025,14.2351016 L9.447025,14.2351016 Z M15.8312437,0.734835938 C16.7042203,-0.1386875 18.1253844,-0.138140625 18.9989625,0.734835938 L18.9989625,0.734835938 L27.26465,9.00052344 C28.1375719,9.87404688 28.1375719,11.2952109 27.26465,12.1682422 L27.26465,12.1682422 L25.2891187,14.1438281 C24.4169625,15.0159297 23.0017594,15.0230938 22.1213453,14.1438281 L22.1213453,14.1438281 L13.8556578,5.87814063 C12.9772125,4.99849219 12.9826266,3.58339844 13.8556578,2.71042188 L13.8556578,2.71042188 Z M21.2274781,0.372585938 C22.1798609,-0.247679687 23.3257828,-0.0525546875 24.03415,0.655320313 L24.03415,0.655320313 L27.3441656,3.96528125 C28.0462984,4.66746875 28.2513219,5.81355469 27.6271187,6.77167969 C27.4709859,7.011375 27.1349312,7.049 26.9326422,6.84676563 L26.9326422,6.84676563 L21.152775,1.06678906 C20.95065,0.864664063 20.9878922,0.528609375 21.2274781,0.372585938 Z" id="Combined-Shape"></path>
        </g>
    </g>
</svg>