<?xml version="1.0" encoding="UTF-8"?>
<svg width="28px" height="24px" viewBox="0 0 28 24" version="1.1" xmlns="http://www.w3.org/2000/svg" xmlns:xlink="http://www.w3.org/1999/xlink">
    <!-- Generator: Sketch 64 (93537) - https://sketch.com -->
    <title>Combined Shape</title>
    <desc>Created with Sketch.</desc>
    <g id="Symbols" stroke="none" stroke-width="1" fill="none" fill-rule="evenodd">
        <g id="icon/massage-type/deep" transform="translate(0.000000, -2.000000)" fill="#6FCAD8">
            <path d="M27.1546047,16.6130893 C27.6189289,16.6073897 27.9979793,16.9831763 27.9984155,17.4475004 C28,19.3997099 26.7984045,22.6385448 20.8953928,24.4695306 C14.9923812,26.3005164 0.974563613,25.7896505 0.149656126,24.8602514 C-0.0754394902,24.6066427 -0.0167391304,23.9433344 0.376312253,23.6869075 C3.58933992,21.5910024 7.6033004,19.8564964 12.0458933,18.6493423 C16.7801621,17.362947 21.8588972,16.6787178 27.1546047,16.6130893 Z M3.70939209,2 L6.19531581,4.32452472 C6.82550659,4.91383251 7.65602411,5.24160756 8.51877402,5.24160756 L8.51877402,5.24160756 L15.0770598,5.24160756 C16.6196526,5.24160756 18.1120601,5.79062484 19.2868243,6.79036245 L19.2868243,6.79036245 L26.3058438,12.7635473 C26.9529211,13.3023142 27.0615277,14.2893129 26.5107328,14.926199 C25.9765875,15.5437694 25.0439217,15.6222173 24.4136717,15.0976113 L24.4136717,15.0976113 L20.0506848,11.4648305 C19.2088504,10.7639535 18.147966,10.3801273 17.0525385,10.3801273 L17.0525385,10.3801273 L11.8938735,10.3801273 C11.1179259,10.3801273 10.4889201,11.0091923 10.4889201,11.7850807 C10.4889201,12.5610283 11.1179851,13.190034 11.8938735,13.190034 L11.8938735,13.190034 L16.8459312,13.190034 C17.6218195,13.190034 18.2508845,13.8191583 18.2508845,14.5950466 C18.2508845,15.370935 17.6218195,16 16.8459312,16 L16.8459312,16 L8.62447732,16 C7.04769684,16 5.59131384,15.1569213 4.80612314,13.7895329 L4.80612314,13.7895329 L4.17658411,12.6933351 C3.74239475,11.9371773 3.20315383,11.2465508 2.57497757,10.641897 L2.57497757,10.641897 L0,8.16349816 L3.70939209,2 Z" id="Combined-Shape"></path>
        </g>
    </g>
</svg>