<?xml version="1.0" encoding="UTF-8"?>
<svg width="27px" height="29px" viewBox="0 0 27 29" version="1.1" xmlns="http://www.w3.org/2000/svg" xmlns:xlink="http://www.w3.org/1999/xlink">
    <!-- Generator: Sketch 64 (93537) - https://sketch.com -->
    <title>Combined Shape</title>
    <desc>Created with Sketch.</desc>
    <g id="Symbols" stroke="none" stroke-width="1" fill="none" fill-rule="evenodd">
        <g id="icon/book" fill="#FF7271">
            <path d="M19.3398,19 L20.6943,22.3418 C21.8402,22.2025 23.0407,22.79225 23.60945,23.88635 C24.34865,25.3273 23.7708,27.04755 22.375,27.80705 C20.9666,28.53365 19.21345,27.96805 18.48685,26.56 C17.8103,25.28215 18.2296,23.73515 19.3342,22.90005 L19.3342,22.90005 L18,19.5131 C18.43715,19.38325 18.8624,19.2205 19.27435,19.02485 C19.30725,19.0126 19.30725,19.0126 19.3398,19 L19.3398,19 Z M16.15,7.35 C19.1873944,7.35 21.65,9.81221831 21.65,12.85 C21.65,15.8873944 19.1873944,18.35 16.15,18.35 C13.1122183,18.35 10.65,15.8873944 10.65,12.85 C10.65,9.81221831 13.1122183,7.35 16.15,7.35 Z M0.0443239384,13.9301556 C0.2416609,12.3575647 1.6998874,11.2320243 3.27213261,11.4293065 C4.35992098,11.5463147 5.22418409,12.2937676 5.59859586,13.2836253 L5.59859586,13.2836253 L9.1776697,12.9188751 C9.16531211,13.4197587 9.22911171,13.9029379 9.33557406,14.3606272 L9.33557406,14.3606272 L5.75650022,14.7253774 C5.52508693,16.2893818 4.08328715,17.3470058 2.54488208,17.1575638 C0.972636869,16.9602816 -0.153303962,15.5023461 0.0443239384,13.9301556 Z M23.57,0.0175380266 C25.145,-0.157461973 26.57965,0.997538027 26.75465,2.57253803 C26.92965,4.14753803 25.775,5.58253803 24.2,5.75753803 C23.71,5.82753803 23.22,5.72253803 22.8,5.54753803 L22.8,5.54753803 L21.19,7.68253803 C20.80465,7.36753803 20.42,7.05253803 20,6.80753803 L20,6.80753803 L21.61,4.67253803 C21.295,4.25253803 21.085,3.76253803 21.015,3.20253803 C20.84,1.62753803 21.995,0.192538027 23.57,0.0175380266 Z" id="Combined-Shape"></path>
        </g>
    </g>
</svg>