<?xml version="1.0" encoding="UTF-8"?>
<svg width="140px" height="20px" viewBox="0 0 140 20" version="1.1" xmlns="http://www.w3.org/2000/svg" xmlns:xlink="http://www.w3.org/1999/xlink">
    <!-- Generator: Sketch 64 (93537) - https://sketch.com -->
    <title>logo-white</title>
    <desc>Created with Sketch.</desc>
    <g id="logo-white" stroke="none" stroke-width="1" fill="none" fill-rule="evenodd">
        <g id="instawalkin" transform="translate(1.176000, 0.832000)" fill-rule="nonzero">
            <path d="M4.536,3.912 L4.536,-4.97379915e-14 L-3.33955086e-13,-4.97379915e-14 L-3.33955086e-13,3.912 L4.536,3.912 Z M4.464,18.168 L4.464,5.976 L0.12,5.976 L0.12,18.168 L4.464,18.168 Z M11.4,18.168 L11.4,11.376 C11.4,10.656 11.6,10.076 12,9.636 C12.4,9.196 12.928,8.976 13.584,8.976 C14.128,8.976 14.528,9.14 14.784,9.468 C15.04,9.796 15.168,10.336 15.168,11.088 L15.168,11.088 L15.168,18.168 L19.512,18.168 L19.512,10.896 C19.512,9.136 19.156,7.82 18.444,6.948 C17.732,6.076 16.656,5.64 15.216,5.64 C14.352,5.64 13.576,5.824 12.888,6.192 C12.2,6.56 11.624,7.088 11.16,7.776 L11.16,7.776 L10.944,5.976 L6.864,5.976 C6.992,7 7.056,8.168 7.056,9.48 L7.056,9.48 L7.056,18.168 L11.4,18.168 Z M26.952,18.36 C28.632,18.36 29.948,18.016 30.9,17.328 C31.852,16.64 32.328,15.696 32.328,14.496 C32.328,13.488 32.044,12.692 31.476,12.108 C30.908,11.524 29.976,11.08 28.68,10.776 L28.68,10.776 L26.64,10.32 C26.192,10.208 25.888,10.1 25.728,9.996 C25.568,9.892 25.488,9.752 25.488,9.576 C25.488,9.288 25.624,9.068 25.896,8.916 C26.168,8.764 26.544,8.688 27.024,8.688 C27.616,8.688 28.248,8.8 28.92,9.024 C29.592,9.248 30.248,9.568 30.888,9.984 L30.888,9.984 L32.04,7.104 C31.304,6.64 30.512,6.28 29.664,6.024 C28.816,5.768 27.952,5.64 27.072,5.64 C26,5.64 25.052,5.812 24.228,6.156 C23.404,6.5 22.76,6.976 22.296,7.584 C21.832,8.192 21.6,8.888 21.6,9.672 C21.6,10.648 21.876,11.412 22.428,11.964 C22.98,12.516 23.88,12.92 25.128,13.176 L25.128,13.176 L27.096,13.632 C27.656,13.744 28.036,13.868 28.236,14.004 C28.436,14.14 28.536,14.32 28.536,14.544 C28.536,14.8 28.4,15 28.128,15.144 C27.856,15.288 27.472,15.36 26.976,15.36 C26.176,15.36 25.36,15.236 24.528,14.988 C23.696,14.74 22.952,14.392 22.296,13.944 L22.296,13.944 L21.192,16.896 C22.6,17.872 24.52,18.36 26.952,18.36 Z M40.296,18.36 C41.208,18.36 41.96,18.24 42.552,18 L42.552,18 L42.552,14.712 C42.072,14.808 41.688,14.856 41.4,14.856 C40.888,14.856 40.46,14.708 40.116,14.412 C39.772,14.116 39.6,13.68 39.6,13.104 L39.6,13.104 L39.6,9.168 L42.528,9.168 L42.528,5.976 L39.6,5.976 L39.6,1.824 L35.256,3.216 L35.256,5.976 L32.976,5.976 L32.976,9.168 L35.256,9.168 L35.256,13.104 C35.256,14.752 35.684,16.04 36.54,16.968 C37.396,17.896 38.648,18.36 40.296,18.36 Z M49.008,18.36 C49.808,18.36 50.544,18.196 51.216,17.868 C51.888,17.54 52.4,17.088 52.752,16.512 L52.752,16.512 L52.752,18.168 L57.024,18.168 L57.024,5.976 L52.752,5.976 L52.752,7.536 C52.384,6.96 51.868,6.5 51.204,6.156 C50.54,5.812 49.808,5.64 49.008,5.64 C47.984,5.64 47.064,5.912 46.248,6.456 C45.432,7 44.792,7.76 44.328,8.736 C43.864,9.712 43.632,10.832 43.632,12.096 C43.632,13.344 43.86,14.444 44.316,15.396 C44.772,16.348 45.408,17.08 46.224,17.592 C47.04,18.104 47.968,18.36 49.008,18.36 Z M50.352,15.12 C49.568,15.12 48.968,14.86 48.552,14.34 C48.136,13.82 47.928,13.072 47.928,12.096 C47.928,11.088 48.144,10.308 48.576,9.756 C49.008,9.204 49.6,8.928 50.352,8.928 C51.12,8.928 51.712,9.196 52.128,9.732 C52.544,10.268 52.752,11.04 52.752,12.048 C52.752,13.04 52.544,13.8 52.128,14.328 C51.712,14.856 51.12,15.12 50.352,15.12 Z M66.744,18.168 L69.048,12.12 L71.496,18.168 L75.072,18.168 L80.16,5.976 L75.984,5.976 L73.32,13.152 L70.608,5.976 L67.824,5.976 L65.184,13.008 L62.472,5.976 L58.056,5.976 L63.144,18.168 L66.744,18.168 Z M86.04,18.36 C86.84,18.36 87.576,18.196 88.248,17.868 C88.92,17.54 89.432,17.088 89.784,16.512 L89.784,16.512 L89.784,18.168 L94.056,18.168 L94.056,5.976 L89.784,5.976 L89.784,7.536 C89.416,6.96 88.9,6.5 88.236,6.156 C87.572,5.812 86.84,5.64 86.04,5.64 C85.016,5.64 84.096,5.912 83.28,6.456 C82.464,7 81.824,7.76 81.36,8.736 C80.896,9.712 80.664,10.832 80.664,12.096 C80.664,13.344 80.892,14.444 81.348,15.396 C81.804,16.348 82.44,17.08 83.256,17.592 C84.072,18.104 85,18.36 86.04,18.36 Z M87.384,15.12 C86.6,15.12 86,14.86 85.584,14.34 C85.168,13.82 84.96,13.072 84.96,12.096 C84.96,11.088 85.176,10.308 85.608,9.756 C86.04,9.204 86.632,8.928 87.384,8.928 C88.152,8.928 88.744,9.196 89.16,9.732 C89.576,10.268 89.784,11.04 89.784,12.048 C89.784,13.04 89.576,13.8 89.16,14.328 C88.744,14.856 88.152,15.12 87.384,15.12 Z M100.992,18.168 L100.992,0.504 L96.648,0.504 L96.648,18.168 L100.992,18.168 Z M107.928,18.168 L107.928,12.912 L112.08,18.168 L117.336,18.168 L112.344,11.832 L117.144,6 L112.008,6 L107.928,11.064 L107.928,0.504 L103.584,0.504 L103.584,18.168 L107.928,18.168 Z" id="instawalk" fill="#FFFFFF"></path>
            <path d="M122.352,3.912 L122.352,6.03961325e-14 L117.816,6.03961325e-14 L117.816,3.912 L122.352,3.912 Z M122.28,18.168 L122.28,5.976 L117.936,5.976 L117.936,18.168 L122.28,18.168 Z M129.216,18.168 L129.216,11.376 C129.216,10.656 129.416,10.076 129.816,9.636 C130.216,9.196 130.744,8.976 131.4,8.976 C131.944,8.976 132.344,9.14 132.6,9.468 C132.856,9.796 132.984,10.336 132.984,11.088 L132.984,11.088 L132.984,18.168 L137.328,18.168 L137.328,10.896 C137.328,9.136 136.972,7.82 136.26,6.948 C135.548,6.076 134.472,5.64 133.032,5.64 C132.168,5.64 131.392,5.824 130.704,6.192 C130.016,6.56 129.44,7.088 128.976,7.776 L128.976,7.776 L128.76,5.976 L124.68,5.976 C124.808,7 124.872,8.168 124.872,9.48 L124.872,9.48 L124.872,18.168 L129.216,18.168 Z" id="in" fill="#FF7271"></path>
        </g>
    </g>
</svg>