<?xml version="1.0" encoding="UTF-8"?>
<svg width="28px" height="22px" viewBox="0 0 28 22" version="1.1" xmlns="http://www.w3.org/2000/svg" xmlns:xlink="http://www.w3.org/1999/xlink">
    <!-- Generator: Sketch 64 (93537) - https://sketch.com -->
    <title>Combined Shape</title>
    <desc>Created with Sketch.</desc>
    <g id="Symbols" stroke="none" stroke-width="1" fill="none" fill-rule="evenodd">
        <g id="icon/massage-type/thai" transform="translate(0.000000, -3.000000)" fill="#6FCAD8">
            <path d="M13.7703565,3.08667801 C13.9005053,2.97110733 14.0995461,2.97110733 14.2296948,3.08667801 C15.3355728,4.06898743 20.0590188,8.58153855 20.0590188,13.9999586 C20.0590188,19.4184615 15.3355728,23.9310126 14.2296948,24.913322 C14.0995461,25.0288927 13.9005053,25.0288927 13.7703565,24.913322 C12.6644785,23.9310126 7.94103257,19.4184615 7.94103257,13.9999586 C7.94103257,8.58153855 12.6644785,4.06898743 13.7703565,3.08667801 Z M0.704450087,7.14976528 L0.778589413,7.15042276 C1.60992826,7.24489786 4.0130895,7.59053444 6.54957381,8.63431059 C6.53584686,8.66591259 6.52160514,8.69759732 6.50804977,8.72928205 C5.75109387,10.500897 5.36725383,12.2741666 5.36725383,13.9999504 C5.36725383,15.7257342 5.75109387,17.498921 6.50804977,19.2706187 C7.0881853,20.6284294 7.88898166,21.9893838 8.88813256,23.3157579 C8.89044899,23.3188189 8.8928512,23.3219625 8.89516763,23.3250235 C9.09480906,23.589835 8.81598024,23.9433307 8.49948809,23.8246991 C6.30918048,23.0041225 3.93347315,21.6770865 2.33042193,19.5451921 C-0.967994305,15.1584699 0.108885488,8.83161629 0.406331492,7.41035338 C0.44124944,7.24307785 0.602798568,7.13048537 0.778589413,7.15042276 Z M27.2214534,7.15060476 C27.3972442,7.13066737 27.5587076,7.24325985 27.5937113,7.41053538 C27.8910715,8.83179829 28.9680371,15.1586519 25.6695351,19.5453741 C24.0667412,21.6771858 21.6908623,23.0042217 19.5006405,23.8247984 C19.1841484,23.94343 18.9053195,23.5899343 19.104961,23.3251227 C19.1072774,23.3220618 19.1095938,23.3189181 19.111996,23.3158572 C20.1111469,21.9894003 20.9119433,20.6283632 21.4920788,19.2706352 C22.2490347,17.4990202 22.6328748,15.7258334 22.6328748,13.9999669 C22.6328748,12.2742658 22.2490347,10.5009136 21.491993,8.72938133 C21.4785235,8.69786205 21.4642817,8.66609459 21.450469,8.63440986 C23.9870391,7.59071644 26.3902003,7.24507986 27.2214534,7.15060476 Z" id="Combined-Shape"></path>
        </g>
    </g>
</svg>