<?xml version="1.0" encoding="UTF-8"?>
<svg width="22px" height="28px" viewBox="0 0 22 28" version="1.1" xmlns="http://www.w3.org/2000/svg" xmlns:xlink="http://www.w3.org/1999/xlink">
    <!-- Generator: Sketch 64 (93537) - https://sketch.com -->
    <title>Fill 1</title>
    <desc>Created with Sketch.</desc>
    <g id="Symbols" stroke="none" stroke-width="1" fill="none" fill-rule="evenodd">
        <g id="icon/massage-type/theraupeutic" transform="translate(-3.000000, 0.000000)" fill="#6FCAD8">
            <path d="M17.9264075,18.6174352 L15.0736467,18.6174352 L15.0736467,21.4701959 C15.0736467,22.0631407 14.5929719,22.5438155 14.0000271,22.5438155 C13.4070823,22.5438155 12.9264075,22.0631407 12.9264075,21.4701959 L12.9264075,18.6174352 L10.0736467,18.6174352 C9.48070196,18.6174352 9.00002712,18.1367603 9.00002712,17.5438155 C9.00002712,16.9508708 9.48070196,16.4701959 10.0736467,16.4701959 L12.9264075,16.4701959 L12.9264075,13.6174352 C12.9264075,13.0244904 13.4070823,12.5438155 14.0000271,12.5438155 C14.5929719,12.5438155 15.0736467,13.0244904 15.0736467,13.6174352 L15.0736467,16.4701959 L17.9264075,16.4701959 C18.5193523,16.4701959 19.0000271,16.9508708 19.0000271,17.5438155 C19.0000271,18.1367603 18.5193523,18.6174352 17.9264075,18.6174352 M14.2325825,0.0964709634 C14.1033429,-0.0321569878 13.8966571,-0.0321569878 13.7674717,0.0964709634 C12.2223452,1.6345118 3.5,10.6157209 3.5,17.3622322 C3.5,23.2372493 8.20105705,28 14.0000271,28 C19.7989972,28 24.5,23.2372493 24.5,17.3622322 C24.5,10.6156659 15.7777091,1.6345118 14.2325825,0.0964709634" id="Fill-1"></path>
        </g>
    </g>
</svg>