<svg width="900" height="450" xmlns="http://www.w3.org/2000/svg">
 <style type="text/css">.st0{fill:#fff;}</style>

 <g>
  <title>background</title>
  <rect fill="none" id="canvas_background" height="452" width="902" y="-1" x="-1"/>
 </g>
 <g>
  <title>Layer 1</title>
  <g stroke="null" id="svg_1">
   <g stroke="null" id="InstaWalkin">
    <path stroke="null" id="svg_2" d="m34.34271,31.955957c0,0.8 -0.2,1.5 -0.5,2.2c-0.3,0.7 -0.8,1.3 -1.3,1.8c-0.5,0.5 -1.2,1 -1.9,1.3c-0.7,0.3 -1.4,0.5 -2.2,0.5c-1.6,0 -3,-0.6 -4.1,-1.7c-1.2,-1.2 -1.7,-2.5 -1.7,-4c0,-1.6 0.6,-3 1.7,-4.1c1.2,-1.2 2.5,-1.7 4.1,-1.7c0.7,0 1.5,0.2 2.2,0.5c0.7,0.3 1.3,0.7 1.9,1.3c0.5,0.5 1,1.2 1.3,1.9c0.3,0.5 0.5,1.2 0.5,2zm-3.6,30.3l0,83.6l-4.4,0l0,-83.7l4.4,0l0,0.1z" class="st0"/>
    <path stroke="null" id="svg_3" d="m61.64271,145.855957l0,-83.7l2.1,0c1.1,0 1.6,0.6 1.7,1.7l0.5,14.5c3.9,-5.4 8.5,-9.6 13.9,-12.8c5.4,-3.2 11.3,-4.8 17.7,-4.8c4.6,0 8.7,0.7 12.2,2.2c3.5,1.4 6.4,3.5 8.7,6.2c2.3,2.7 4,6 5.2,9.9c1.2,3.9 1.7,8.3 1.7,13.2l0,53.6l-4.5,0l0,-53.6c0,-4.4 -0.5,-8.3 -1.4,-11.7c-1,-3.5 -2.4,-6.4 -4.5,-8.8c-2,-2.4 -4.5,-4.2 -7.5,-5.5c-3,-1.3 -6.5,-1.9 -10.6,-1.9c-6.1,0 -11.8,1.6 -17,4.8c-5.2,3.2 -9.8,7.6 -13.7,13.3l0,63.4l-4.5,0z" class="st0"/>
    <path stroke="null" id="svg_4" d="m198.74271,70.755957c-0.3,0.5 -0.7,0.8 -1.3,0.8c-0.5,0 -1.2,-0.4 -2.2,-1.1s-2.2,-1.6 -3.9,-2.5c-1.6,-0.9 -3.7,-1.7 -6.2,-2.5c-2.5,-0.8 -5.5,-1.1 -9.1,-1.1c-3.3,0 -6.4,0.5 -9.1,1.5c-2.7,1 -5.1,2.3 -7.1,3.9c-2,1.6 -3.5,3.6 -4.6,5.8c-1.1,2.2 -1.6,4.5 -1.6,6.9c0,2.8 0.7,5.2 2.1,7.1c1.4,1.9 3.2,3.6 5.5,4.9c2.3,1.3 4.8,2.5 7.7,3.4s5.8,1.9 8.8,2.8c3,0.9 5.9,1.9 8.8,3c2.9,1.1 5.5,2.4 7.7,4c2.3,1.6 4.1,3.5 5.5,5.9c1.4,2.3 2.1,5.2 2.1,8.6c0,3.5 -0.6,6.8 -1.9,9.8c-1.2,3.1 -3.1,5.7 -5.5,8c-2.4,2.3 -5.3,4.1 -8.8,5.4c-3.5,1.3 -7.5,2 -11.9,2c-3,0 -5.7,-0.2 -8.1,-0.7c-2.4,-0.5 -4.7,-1.2 -6.8,-2c-2.1,-0.9 -4,-1.9 -5.9,-3.2c-1.8,-1.2 -3.6,-2.6 -5.3,-4.2l1.1,-1.4c0.2,-0.3 0.4,-0.5 0.6,-0.6c0.2,-0.1 0.5,-0.2 1,-0.2c0.6,0 1.4,0.5 2.4,1.4c1,0.9 2.5,2 4.2,3.1c1.8,1.1 4,2.2 6.7,3.1s6.1,1.4 10,1.4c3.9,0 7.3,-0.6 10.3,-1.7s5.5,-2.6 7.5,-4.5c2,-1.9 3.5,-4.2 4.5,-6.7c1,-2.6 1.5,-5.3 1.5,-8.2c0,-3.1 -0.7,-5.6 -2.1,-7.6c-1.4,-2 -3.2,-3.7 -5.5,-5.1c-2.3,-1.4 -4.8,-2.6 -7.7,-3.5c-2.9,-1 -5.8,-1.9 -8.8,-2.8c-3,-0.9 -5.9,-1.9 -8.8,-2.9c-2.9,-1 -5.5,-2.3 -7.7,-3.9c-2.3,-1.6 -4.1,-3.5 -5.5,-5.7c-1.4,-2.3 -2.1,-5.1 -2.1,-8.5c0,-2.8 0.6,-5.6 1.9,-8.2c1.3,-2.6 3.1,-5 5.4,-7c2.3,-2 5.1,-3.6 8.4,-4.8c3.3,-1.2 6.9,-1.8 10.9,-1.8c4.9,0 9.2,0.7 12.9,2s7.3,3.5 10.6,6.5l-0.6,1.1z" class="st0"/>
    <path stroke="null" id="svg_5" d="m247.14271,147.255957c-5.2,0 -9.3,-1.4 -12.2,-4.3c-2.9,-2.9 -4.4,-7.5 -4.4,-13.8l0,-60.3l-13.1,0c-1.1,0 -1.6,-0.4 -1.6,-1.3l0,-1.5l14.7,-0.6l1.3,-32.3c0.1,-0.3 0.2,-0.7 0.4,-1c0.2,-0.3 0.5,-0.5 0.9,-0.5l1.9,0l0,33.7l27.7,0l0,3.4l-27.7,0l0,60.2c0,2.6 0.3,4.8 1,6.7c0.7,1.8 1.6,3.4 2.7,4.5c1.1,1.2 2.5,2.1 4,2.6c1.6,0.5 3.2,0.8 5,0.8c2.2,0 4.1,-0.3 5.8,-1c1.7,-0.7 3.1,-1.4 4.3,-2.2c1.2,-0.8 2.1,-1.5 2.9,-2.2c0.7,-0.7 1.3,-1 1.6,-1c0.3,0 0.6,0.2 0.9,0.5l1.1,1.6c-1,1.2 -2.1,2.3 -3.4,3.2c-1.3,1 -2.7,1.8 -4.2,2.5c-1.5,0.7 -3.1,1.3 -4.8,1.7c-1.5,0.4 -3.1,0.6 -4.8,0.6z" class="st0"/>
    <path stroke="null" id="svg_6" d="m332.94271,145.855957c-1.1,0 -1.8,-0.6 -2,-1.8l-0.8,-12.3c-2.3,2.4 -4.7,4.5 -7,6.4c-2.3,1.9 -4.8,3.5 -7.4,4.8c-2.6,1.3 -5.4,2.4 -8.4,3.1c-3,0.7 -6.3,1.1 -9.9,1.1c-2.7,0 -5.3,-0.4 -7.9,-1.2c-2.6,-0.8 -5,-2 -7,-3.7c-2.1,-1.7 -3.8,-3.9 -5.1,-6.6c-1.3,-2.7 -1.9,-5.9 -1.9,-9.7c0,-3.7 1.1,-7 3.2,-10c2.1,-3 5.4,-5.6 9.9,-7.8c4.5,-2.2 10.1,-3.9 17,-5.2c6.8,-1.3 15,-2 24.4,-2.2l0,-9.9c0,-8.4 -1.8,-14.9 -5.4,-19.5c-3.6,-4.6 -9,-7 -16.1,-7c-4.2,0 -7.9,0.6 -10.9,1.8c-3.1,1.2 -5.6,2.6 -7.6,4.1c-2,1.5 -3.7,2.9 -4.9,4.1c-1.2,1.2 -2.1,1.8 -2.8,1.8c-0.6,0 -1.1,-0.3 -1.5,-0.9l-0.8,-1.2c4.2,-4.3 8.6,-7.6 13.2,-9.8c4.6,-2.3 9.8,-3.4 15.7,-3.4c4.4,0 8.1,0.7 11.4,2.1c3.2,1.4 5.9,3.4 8,6c2.1,2.6 3.7,5.8 4.7,9.5c1,3.7 1.5,7.9 1.5,12.5l0,55l-1.6,0l0,-0.1zm-34.6,-1.9c3.6,0 6.9,-0.4 9.9,-1.2c3,-0.8 5.8,-1.9 8.3,-3.4c2.5,-1.4 4.9,-3.1 7.1,-5c2.2,-1.9 4.3,-3.9 6.4,-6.1l0,-24.3c-17.1,0.6 -29.7,2.7 -37.9,6.4c-8.2,3.7 -12.3,8.8 -12.3,15.4c0,3.1 0.5,5.8 1.6,8.1c1,2.3 2.4,4.1 4.2,5.6c1.7,1.5 3.7,2.6 5.9,3.3c2.2,0.8 4.4,1.2 6.8,1.2z" class="st0"/>
    <path stroke="null" id="svg_7" d="m350.54271,23.655957l16.6,0c1.7,0 3.1,0.4 4.3,1.2c1.2,0.8 1.9,1.9 2.3,3.4l22.9,78.3c0.5,1.7 0.9,3.5 1.2,5.5c0.4,2 0.7,4 1.1,6.2c0.5,-2.1 0.9,-4.2 1.4,-6.2c0.5,-2 1,-3.8 1.6,-5.4l26.2,-78.3c0.4,-1.1 1.2,-2.2 2.4,-3.1c1.2,-1 2.6,-1.4 4.2,-1.4l5.8,0c1.8,0 3.2,0.4 4.2,1.3c1.1,0.9 1.9,2 2.5,3.3l26.1,78.3c0.6,1.6 1.1,3.4 1.5,5.3c0.5,1.9 0.9,3.9 1.4,6.1c0.4,-2.1 0.8,-4.1 1.1,-6c0.4,-1.9 0.8,-3.7 1.2,-5.3l22.8,-78.3c0.3,-1.2 1.1,-2.3 2.3,-3.2c1.2,-0.9 2.6,-1.4 4.3,-1.4l15.5,0l-38,122.2l-17.9,0l-28.4,-88c-0.3,-1 -0.7,-2 -1,-3.1c-0.3,-1.1 -0.6,-2.3 -0.9,-3.6c-0.3,1.3 -0.6,2.5 -0.9,3.6c-0.3,1.1 -0.7,2.2 -0.9,3.1l-29,87.7l-17.9,0l-38,-122.2z" class="st0"/>
    <path stroke="null" id="svg_8" d="m582.64271,145.855957c-1.8,0 -3.1,-0.3 -4,-0.8c-0.9,-0.5 -1.7,-1.6 -2.3,-3.3l-1.8,-7c-2.2,2 -4.4,3.8 -6.5,5.3c-2.2,1.5 -4.4,2.8 -6.7,3.9c-2.3,1.1 -4.8,1.9 -7.4,2.4c-2.6,0.5 -5.5,0.8 -8.7,0.8c-3.5,0 -6.8,-0.5 -9.8,-1.4c-3,-1 -5.6,-2.4 -7.9,-4.4c-2.2,-2 -3.9,-4.4 -5.2,-7.3c-1.3,-2.9 -1.9,-6.3 -1.9,-10.2c0,-3.3 0.9,-6.6 2.7,-9.8c1.8,-3.2 4.7,-6 8.8,-8.5c4.1,-2.5 9.5,-4.6 16.2,-6.2c6.7,-1.6 15,-2.6 24.8,-2.8l0,-5.7c0,-6.2 -1.3,-10.9 -4,-13.9c-2.7,-3.1 -6.6,-4.6 -11.7,-4.6c-3.5,0 -6.5,0.4 -8.8,1.3c-2.4,0.9 -4.4,1.8 -6.2,2.8c-1.8,1 -3.3,2 -4.7,2.8c-1.4,0.9 -2.8,1.3 -4.3,1.3c-1.2,0 -2.3,-0.3 -3.2,-1c-0.9,-0.6 -1.6,-1.5 -2.2,-2.4l-3.3,-5.9c9.8,-9.1 21.4,-13.7 35,-13.7c5,0 9.4,0.8 13.3,2.4c3.9,1.6 7.1,3.9 9.8,6.8c2.6,2.9 4.6,6.4 6,10.5c1.4,4 2.1,8.5 2.1,13.5l0,55l-8.1,0l0,0.1zm-31.9,-11.3c4.8,0 8.8,-0.9 12.3,-2.7c3.4,-1.8 6.7,-4.3 10,-7.7l0,-16.1c-6.5,0.3 -12,0.8 -16.5,1.6c-4.5,0.8 -8.1,1.8 -10.9,3.1c-2.8,1.3 -4.8,2.8 -6,4.5c-1.2,1.7 -1.8,3.6 -1.8,5.7c0,2 0.3,3.8 1,5.2s1.6,2.6 2.7,3.6c1.2,0.9 2.5,1.6 4.1,2c1.6,0.5 3.3,0.8 5.1,0.8z" class="st0"/>
    <path stroke="null" id="svg_9" d="m630.64271,20.255957l0,125.6l-18.2,0l0,-125.6l18.2,0z" class="st0"/>
    <path stroke="null" id="svg_10" d="m671.44271,20.255957l0,72.8l3.9,0c1.2,0 2.3,-0.2 3.1,-0.5c0.8,-0.3 1.6,-1 2.5,-2.1l24.3,-27.8c0.8,-1.1 1.8,-2 2.8,-2.5c1,-0.6 2.3,-0.8 3.9,-0.8l16.5,0l-29.2,32.9c-1.7,2.2 -3.6,4 -5.6,5.3c1.1,0.8 2.1,1.7 3,2.7c0.8,1 1.7,2.1 2.5,3.4l31.1,42.4l-16.3,0c-1.5,0 -2.7,-0.2 -3.8,-0.7c-1,-0.5 -2,-1.4 -2.8,-2.7l-25,-33.9c-0.8,-1.3 -1.7,-2.1 -2.5,-2.5c-0.8,-0.4 -2.1,-0.6 -3.8,-0.6l-4.5,0l0,40.2l-18.2,0l0,-125.6l18.1,0z" class="st0"/>
    <path stroke="null" id="svg_11" d="m763.94271,33.155957c0,1.6 -0.3,3.2 -1,4.7c-0.7,1.5 -1.5,2.8 -2.7,3.9c-1.1,1.1 -2.4,2 -3.9,2.6c-1.5,0.7 -3.1,1 -4.8,1c-1.6,0 -3.2,-0.3 -4.6,-1c-1.4,-0.6 -2.7,-1.5 -3.8,-2.6c-1.1,-1.1 -1.9,-2.4 -2.6,-3.9c-0.7,-1.5 -1,-3 -1,-4.7c0,-1.7 0.3,-3.3 1,-4.8c0.6,-1.5 1.5,-2.8 2.6,-3.9c1.1,-1.1 2.3,-2 3.8,-2.6c1.4,-0.6 3,-1 4.6,-1c1.7,0 3.3,0.3 4.8,1c1.5,0.7 2.8,1.5 3.9,2.6c1.1,1.1 2,2.4 2.7,3.9c0.6,1.5 1,3.1 1,4.8zm-3.1,26.2l0,86.5l-18.2,0l0,-86.6l18.2,0l0,0.1z" class="st0"/>
    <path stroke="null" id="svg_12" d="m783.84271,145.855957l0,-86.6l11,0c2.5,0 4.1,1.2 4.8,3.5l1.3,8.1c1.8,-1.9 3.7,-3.7 5.7,-5.3c2,-1.6 4.1,-2.9 6.4,-4.1c2.3,-1.1 4.7,-2 7.3,-2.6c2.6,-0.6 5.4,-0.9 8.4,-0.9c4.8,0 8.9,0.8 12.5,2.4c3.6,1.6 6.6,3.8 9.1,6.7c2.5,2.9 4.3,6.4 5.6,10.4c1.2,4 1.9,8.5 1.9,13.4l0,55l-18.2,0l0,-55c0,-5.8 -1.3,-10.4 -4,-13.6c-2.7,-3.2 -6.8,-4.8 -12.3,-4.8c-4.1,0 -7.9,0.9 -11.3,2.8s-6.7,4.4 -9.8,7.6l0,63l-18.4,0z" class="st0"/>
   </g>
   <g stroke="null" id="svg_13">
    <g stroke="null" id="svg_14">
     <path stroke="null" id="svg_15" d="m240.14271,329.455957c-2.3,-0.9 -4.6,-1.1 -6.6,-0.7c-1.2,0.3 -2.4,0.8 -3.2,1.6c-0.6,0.5 -1.1,1.2 -1.4,2c-1.5,3.5 1.2,8 5.9,10c4.7,1.9 9.7,0.7 11.2,-2.9c1.5,-3.5 -1.2,-8 -5.9,-10z" class="st0"/>
     <path stroke="null" id="svg_16" d="m195.54271,315.555957c-1.8,0 -3.2,1.4 -3.2,3.2c0,1.8 1.4,3.2 3.2,3.2c1.8,0 3.2,-1.4 3.2,-3.2c0.1,-1.8 -1.4,-3.2 -3.2,-3.2z" class="st0"/>
     <path stroke="null" id="svg_17" d="m196.54271,229.655957c-47.9,0 -86.9,39 -86.9,86.9c0,47.9 39,86.9 86.9,86.9c47.9,0 86.9,-39 86.9,-86.9c0,-47.9 -39,-86.9 -86.9,-86.9zm-56.4,117.6l-5.1,-0.8l47.1,-26.8l11.9,6.8c-9.9,3.9 -25.8,10 -53.9,20.8zm111.3,-5.2c-2.6,6.2 -11,8.7 -18.7,5.5c-6.1,-2.5 -10,-7.9 -10,-13.1l0,0c0,0 0,0 0,0c0,-0.4 0,-0.8 0.1,-1.1c-0.4,-1.3 -2.5,-3.6 -10.4,-6.8c-11.8,-4.9 -16.9,-1 -16.9,-1l-60.4,-34.4l5.1,-0.7c64.5,24.9 65,25.1 74.8,28.9c16.2,6.3 17.2,1.4 27.3,5.6c7.6,3.2 11.7,10.9 9.1,17.1zm0.9,-44.7c-0.1,0 -0.2,0.1 -0.3,0.1c1.2,5.8 -2.8,12.4 -9.8,15.3c-9.9,4.1 -11.1,-0.6 -26.5,5.3c-0.1,0 -0.1,-0.1 -0.2,-0.1l-2.1,-0.8c-2.7,-1.1 -5.1,-2 -9.3,-3.6c2.3,-0.3 5.1,-0.9 8.4,-2.3c7.9,-3.3 10,-5.6 10.4,-6.8c0,-0.4 -0.1,-0.7 -0.1,-1.1c0,0 0,0 0,0l0,0c0.1,-5.2 3.9,-10.6 10,-13.1c6.1,-2.5 12.6,-1.5 16.3,2.1c0.2,-0.2 0.5,-0.4 0.8,-0.5c2.2,-0.9 4.6,-4 3.2,-7.3c-0.6,-1.6 0.1,-3.3 1.7,-4c0.4,-0.2 0.8,-0.2 1.2,-0.2c1.2,0 2.3,0.7 2.8,1.9c2.7,6.3 -1.2,12.9 -6.5,15.1z" class="st0"/>
     <path stroke="null" id="svg_18" d="m234.84271,294.655957c-4.7,1.9 -7.4,6.4 -5.9,10c0.3,0.8 0.8,1.4 1.4,2l0,0c0.9,0.8 2,1.3 3.2,1.6l0,0c2,0.4 4.3,0.3 6.6,-0.7c4.7,-1.9 7.4,-6.4 5.9,-10c-1.4,-3.6 -6.5,-4.9 -11.2,-2.9z" class="st0"/>
     <path stroke="null" id="svg_19" d="m267.24271,245.855957c-18.9,-18.9 -44,-29.3 -70.7,-29.3s-51.8,10.4 -70.7,29.3c-18.9,18.9 -29.3,44 -29.3,70.7c0,26.7 10.4,51.8 29.3,70.7c18.9,18.9 44,29.3 70.7,29.3s51.8,-10.4 70.7,-29.3c18.9,-18.9 29.3,-44 29.3,-70.7c0,-26.7 -10.4,-51.8 -29.3,-70.7zm-5.4,136c-17.4,17.4 -40.6,27 -65.3,27c-24.7,0 -47.8,-9.6 -65.3,-27c-17.4,-17.4 -27,-40.6 -27,-65.3s9.6,-47.8 27,-65.3c17.4,-17.4 40.6,-27 65.3,-27c24.7,0 47.8,9.6 65.3,27c17.4,17.4 27,40.6 27,65.3s-9.6,47.8 -27,65.3z" class="st0"/>
    </g>
    <g stroke="null" id="svg_20">
     <path stroke="null" id="svg_21" d="m677.64271,229.655957c-48,0 -86.9,38.9 -86.9,86.9c0,48 38.9,86.9 86.9,86.9c48,0 86.9,-38.9 86.9,-86.9c0,-48 -38.9,-86.9 -86.9,-86.9zm10.4,24.2c5.1,0 9.2,5.2 9.2,11.7c0,6.4 -4.1,11.7 -9.2,11.7s-9.2,-5.2 -9.2,-11.7c0,-6.5 4.1,-11.7 9.2,-11.7zm-23.9,26.5c0.2,-2.6 4.1,-11.3 10.5,-1.5c0,0 1.5,18.8 14.5,30.8c0,0 9.3,-14.4 14.3,-27.4c0,0 11.3,-24.2 11.3,2c0,8.8 -6.2,20.1 -18.6,30.3c0,0 -0.4,3 11.5,9.6c0,0 14.7,7.1 -1.5,6.2c0,0 -12.6,-5.6 -16.7,-9.6l-12.4,7.9c0,0 -18.8,7.3 -7.3,-3.9l14.5,-8.8c-0.1,-0.1 -21.7,-18 -20.1,-35.6zm-52.6,54.8c0,-5.7 5.1,-10.3 11.4,-10.3s11.4,4.6 11.4,10.3c0,5.7 -5.1,10.3 -11.4,10.3s-11.4,-4.6 -11.4,-10.3zm110.5,3.3l-9.4,1.1c0,0 -9.8,3.6 -30.3,2.4l-25,-5.8c0,0 -22.4,-1.7 -5.6,6.8l27.4,4.3c0,0 14.5,3.6 -0.8,7.3l-33.7,2.3c0,0 -1.9,0.9 -9,-2.4c0,0 -3.9,-0.4 -8.3,3c0,0 4.7,-9.2 15.6,-5.5l24.2,-0.8c-1.1,0 -33.8,0.9 -31.6,-12.6c0,0 1.3,-15.4 26.7,-6.8c0,0 24.3,7.7 33.5,6.4l7,-0.2c0,0 12.2,-5.5 25.2,-4.7c0,0 10.7,2.6 19,6l-24.9,-0.8z" class="st0"/>
     <path stroke="null" id="svg_22" d="m667.34271,351.255957c0,0 0,0 0,0l0,0z" class="st0"/>
     <path stroke="null" id="svg_23" d="m748.34271,245.855957c-18.9,-18.9 -44,-29.3 -70.7,-29.3c-26.7,0 -51.8,10.4 -70.7,29.3c-18.9,18.9 -29.3,44 -29.3,70.7c0,26.7 10.4,51.8 29.3,70.7c18.9,18.9 44,29.3 70.7,29.3s51.8,-10.4 70.7,-29.3c18.9,-18.9 29.3,-44 29.3,-70.7c0,-26.7 -10.4,-51.8 -29.3,-70.7zm-5.4,136c-17.4,17.4 -40.6,27 -65.3,27c-24.7,0 -47.8,-9.6 -65.3,-27c-17.4,-17.4 -27,-40.6 -27,-65.3s9.6,-47.8 27,-65.3c17.4,-17.4 40.6,-27 65.3,-27c24.7,0 47.8,9.6 65.3,27c17.4,17.4 27,40.6 27,65.3s-9.6,47.8 -27,65.3z" class="st0"/>
    </g>
    <path stroke="null" id="svg_24" d="m437.14271,229.655957c-48,0 -86.9,38.9 -86.9,86.9c0,48 38.9,86.9 86.9,86.9c48,0 86.9,-38.9 86.9,-86.9c0,-48 -38.9,-86.9 -86.9,-86.9zm4.2,110.9l2.6,-1.3l-4.1,0.6l4.2,-1.9c0.2,-0.1 0.4,-0.2 0.5,-0.3l-3.9,0.3c10.9,-2.2 12.7,-10.7 25.6,-14.9c0.7,0.7 1.5,1.5 2.2,2.2c0.7,0.7 1.5,1.5 2.2,2.2c-3.3,15.4 -20.1,15.4 -29.3,13.1zm-8.3,23.1c-5.4,-0.3 -11,-2.5 -15.8,-4.9c-13,-6.6 -25.1,-17.6 -34.9,-28.3l-0.5,-0.5c-5.2,-3.9 -10.3,-8.6 -15,-13.2c-2.9,-2.8 -5.8,-6 -8.5,-9.2c1.6,-14.5 7.2,-27.8 15.6,-38.9c4.7,5.2 9.3,10.5 14.4,15.3c14.6,13.8 23.8,23.6 25.1,27.9c-5.2,14.9 3,31.4 12.4,42.8c2.3,2.8 4.9,5.5 7.6,8l1.2,1.1l-1.6,-0.1zm22.8,3.6c-4.5,0.3 -9.2,-1.6 -13,-3.8c-5.9,-3.5 -11.1,-8.6 -15.2,-13.9c-5.3,-6.9 -10.5,-17 -10.4,-25.8l0.1,-8.5l6.8,5.2c3.9,3 7.7,6.9 11.1,10.6c1.5,1.6 3,3.3 4.4,4.9c-1.6,0.3 -3.4,0.6 -5.4,0.9l4.1,1.3l-6.4,2c4.6,1.5 9.4,3 14.2,3.6c4.5,5.5 8.7,11.1 13,16.8l4.7,6.3l-8,0.4zm16.2,-41.7l-4,-4l20.8,-20.8l4,4l-20.8,20.8zm12.3,-32.3l19.4,-19.4c4.3,6.7 7.7,14.2 9.8,22.1l-13.3,13.3l-15.9,-16zm23.5,-47.4c-18.9,-18.9 -44,-29.3 -70.7,-29.3c-26.7,0 -51.8,10.4 -70.7,29.3c-18.9,18.9 -29.3,44 -29.3,70.7c0,26.7 10.4,51.8 29.3,70.7c18.9,18.9 44,29.3 70.7,29.3s51.8,-10.4 70.7,-29.3c18.9,-18.9 29.3,-44 29.3,-70.7c0,-26.7 -10.4,-51.8 -29.3,-70.7zm-5.5,136c-17.4,17.4 -40.6,27 -65.3,27c-24.7,0 -47.8,-9.6 -65.3,-27c-17.4,-17.4 -27,-40.6 -27,-65.3s9.6,-47.8 27,-65.3c17.4,-17.4 40.6,-27 65.3,-27s47.8,9.6 65.3,27c17.4,17.4 27,40.6 27,65.3s-9.5,47.8 -27,65.3z" class="st0"/>
   </g>
  </g>
 </g>
</svg>